<svg fill="currentColor" xmlns="http://www.w3.org/2000/svg"
	xmlns:xlink="http://www.w3.org/1999/xlink" version="1.1" width="256" height="256"
	viewBox="0 0 256 256" xml:space="preserve">
<g transform="translate(22.611673151750978 22.61167315175095) scale(2.33 2.33)">
	<path d="M 58.647 13.085 H 31.353 c -1.104 0 -2 -0.896 -2 -2 V 5.936 C 29.353 2.663 32.016 0 35.289 0 h 19.422 c 3.273 0 5.937 2.663 5.937 5.936 v 5.149 C 60.647 12.189 59.752 13.085 58.647 13.085 z M 33.353 9.085 h 23.295 V 5.936 C 56.647 4.869 55.778 4 54.711 4 H 35.289 c -1.067 0 -1.936 0.869 -1.936 1.936 V 9.085 z" transform=" matrix(1 0 0 1 0 0) " stroke-linecap="round"/>
	<path d="M 79.521 19.536 H 10.478 v -6.015 c 0 -2.45 1.986 -4.436 4.436 -4.436 h 60.172 c 2.45 0 4.436 1.986 4.436 4.436 V 19.536 z" transform=" matrix(1 0 0 1 0 0) " stroke-linecap="round"/>
	<path d="M 13.673 24.536 v 59.528 c 0 3.279 2.658 5.937 5.937 5.937 h 50.781 c 3.279 0 5.937 -2.658 5.937 -5.937 V 24.536 H 13.673 z M 41.161 36.74 l 8.07 0.018 l 7.397 12.812 l 4.334 -2.502 l -3.114 11.614 l -11.616 -3.109 l 4.334 -2.502 l -5.376 -9.312 l -1.898 3.287 l -6.06 -3.499 L 41.161 36.74 z M 35.115 74.256 h -7.859 l -4.02 -6.998 l 7.397 -12.812 l -4.334 -2.502 l 11.615 -3.11 l 3.115 11.615 l -4.334 -2.502 l -5.376 9.312 h 3.796 V 74.256 z M 62.714 74.256 l -14.794 0 v 5.004 l -8.501 -8.504 l 8.501 -8.505 v 5.005 l 10.752 0 l -1.898 -3.287 l 6.06 -3.499 l 3.93 6.806 L 62.714 74.256 z" transform=" matrix(1 0 0 1 0 0) " stroke-linecap="round"/>
</g>
</svg>
