<svg fill="currentColor" xmlns="http://www.w3.org/2000/svg"
	xmlns:xlink="http://www.w3.org/1999/xlink" version="1.1" width="256" height="256"
	viewBox="0 0 256 256" xml:space="preserve">
<g transform="translate(27.094163424124503 27.094163424124474) scale(2.23 2.23)">
	<path d="M 0 50.164 v 25.673 c 0 1.944 1.576 3.52 3.52 3.52 h 69.406 c 1.944 0 3.52 -1.576 3.52 -3.52 V 50.164 H 0 z M 12.322 66.432 H 8.396 c -0.829 0 -1.5 -0.672 -1.5 -1.5 s 0.671 -1.5 1.5 -1.5 h 3.926 c 0.829 0 1.5 0.672 1.5 1.5 S 13.15 66.432 12.322 66.432 z M 22.032 66.432 h -3.927 c -0.829 0 -1.5 -0.672 -1.5 -1.5 s 0.671 -1.5 1.5 -1.5 h 3.927 c 0.829 0 1.5 0.672 1.5 1.5 S 22.86 66.432 22.032 66.432 z M 31.741 66.432 h -3.926 c -0.829 0 -1.5 -0.672 -1.5 -1.5 s 0.671 -1.5 1.5 -1.5 h 3.926 c 0.829 0 1.5 0.672 1.5 1.5 S 32.57 66.432 31.741 66.432 z M 41.451 66.432 h -3.926 c -0.829 0 -1.5 -0.672 -1.5 -1.5 s 0.671 -1.5 1.5 -1.5 h 3.926 c 0.829 0 1.5 0.672 1.5 1.5 S 42.28 66.432 41.451 66.432 z M 41.451 59.891 H 8.396 c -0.829 0 -1.5 -0.672 -1.5 -1.5 s 0.671 -1.5 1.5 -1.5 h 33.056 c 0.829 0 1.5 0.672 1.5 1.5 S 42.28 59.891 41.451 59.891 z M 69.051 69.275 c 0 0.553 -0.447 1 -1 1 h -15.22 c -0.553 0 -1 -0.447 -1 -1 V 58.391 c 0 -0.553 0.447 -1 1 -1 h 15.22 c 0.553 0 1 0.447 1 1 V 69.275 z" transform=" matrix(1 0 0 1 0 0) " stroke-linecap="round"/>
	<path d="M 76.446 39.279 v -6.561 c 0 -1.944 -1.576 -3.52 -3.52 -3.52 H 3.52 c -1.944 0 -3.52 1.576 -3.52 3.52 v 6.561 H 76.446 z" transform=" matrix(1 0 0 1 0 0) " stroke-linecap="round"/>
	<path d="M 87.07 22.353 L 18.651 10.694 c -1.917 -0.327 -3.735 0.962 -4.062 2.879 l -1.981 11.625 h 60.317 c 4.146 0 7.521 3.374 7.521 7.521 v 38.901 c 1.143 -0.422 2.041 -1.412 2.26 -2.699 l 7.243 -42.506 C 90.276 24.498 88.987 22.679 87.07 22.353 z" transform=" matrix(1 0 0 1 0 0) " stroke-linecap="round"/>
</g>
</svg>
