<svg fill="currentColor" xmlns="http://www.w3.org/2000/svg"
	xmlns:xlink="http://www.w3.org/1999/xlink" version="1.1" width="256" height="256"
	viewBox="0 0 256 256" xml:space="preserve">
	<g
		style="stroke: none; stroke-width: 0; stroke-dasharray: none; stroke-linecap: butt; stroke-linejoin: miter; stroke-miterlimit: 10; fill: #ff4747; fill-rule: nonzero; opacity: 1;"
		transform="translate(27.094163424124503 27.094163424124474) scale(2.23 2.23)">
	<path d="M 45 7.432 c -21.356 0 -38.73 17.374 -38.73 38.73 c 0 21.355 17.374 38.729 38.73 38.729 c 21.355 0 38.73 -17.374 38.73 -38.729 C 83.73 24.806 66.355 7.432 45 7.432 z M 49.091 46.162 c 0 0.806 -0.239 1.596 -0.686 2.268 L 37.017 65.531 c -0.788 1.184 -2.086 1.824 -3.409 1.824 c -0.779 0 -1.566 -0.222 -2.263 -0.686 c -1.881 -1.251 -2.39 -3.791 -1.138 -5.672 l 10.702 -16.072 V 24.233 c 0 -2.259 1.832 -4.091 4.091 -4.091 s 4.091 1.832 4.091 4.091 V 46.162 z" transform=" matrix(1 0 0 1 0 0) " stroke-linecap="round"/>
	<path d="M 4.651 25.459 c -0.703 0 -1.415 -0.181 -2.066 -0.563 c -1.949 -1.143 -2.602 -3.649 -1.459 -5.598 C 5.966 11.046 13.078 4.511 21.692 0.399 c 2.041 -0.971 4.481 -0.109 5.454 1.93 c 0.973 2.039 0.109 4.481 -1.93 5.454 c -7.133 3.405 -13.023 8.818 -17.033 15.654 C 7.422 24.736 6.055 25.459 4.651 25.459 z" transform=" matrix(1 0 0 1 0 0) " stroke-linecap="round"/>
	<path d="M 85.349 25.459 c -1.404 0 -2.772 -0.723 -3.533 -2.022 c -4.009 -6.835 -9.899 -12.248 -17.033 -15.654 c -2.038 -0.973 -2.902 -3.415 -1.929 -5.454 c 0.972 -2.038 3.412 -2.901 5.454 -1.93 c 8.614 4.113 15.725 10.648 20.564 18.899 c 1.144 1.949 0.489 4.455 -1.459 5.598 C 86.764 25.278 86.052 25.459 85.349 25.459 z" transform=" matrix(1 0 0 1 0 0) " stroke-linecap="round"/>
	<path d="M 17.735 90 c -0.798 0 -1.603 -0.232 -2.31 -0.717 c -1.864 -1.278 -2.338 -3.824 -1.06 -5.688 l 7.668 -11.181 c 1.278 -1.862 3.824 -2.338 5.687 -1.06 c 1.864 1.278 2.338 3.824 1.06 5.688 l -7.668 11.181 C 20.319 89.379 19.038 90 17.735 90 z" transform=" matrix(1 0 0 1 0 0) " stroke-linecap="round"/>
	<path d="M 72.265 90 c -1.303 0 -2.585 -0.621 -3.378 -1.777 l -7.67 -11.183 c -1.277 -1.864 -0.803 -4.41 1.06 -5.688 c 1.864 -1.277 4.41 -0.803 5.688 1.06 l 7.67 11.183 c 1.277 1.864 0.803 4.41 -1.06 5.688 C 73.868 89.767 73.062 90 72.265 90 z" transform=" matrix(1 0 0 1 0 0) " stroke-linecap="round"/>
</g>
</svg>
