<svg fill="currentColor" xmlns="http://www.w3.org/2000/svg"
	xmlns:xlink="http://www.w3.org/1999/xlink" version="1.1"
	width="256" height="256" viewBox="0 0 256 256" xml:space="preserve">
<g transform="translate(22.611673151750978 22.61167315175095) scale(2.33 2.33)">
	<path d="M 84.947 15.13 H 5.052 C 2.267 15.13 0 17.396 0 20.182 v 49.635 c 0 2.786 2.267 5.053 5.052 5.053 h 79.895 c 2.786 0 5.053 -2.267 5.053 -5.053 V 20.182 C 90 17.396 87.733 15.13 84.947 15.13 z M 5.052 17.13 h 79.895 c 1.684 0 3.053 1.369 3.053 3.052 v 6.553 H 2 v -6.553 C 2 18.499 3.369 17.13 5.052 17.13 z M 84.947 72.87 H 5.052 C 3.369 72.87 2 71.501 2 69.817 V 28.735 h 86 v 41.083 C 88 71.501 86.631 72.87 84.947 72.87 z" transform=" matrix(1 0 0 1 0 0) " stroke-linecap="round"/>
	<path d="M 79.336 48.735 h -13.52 c -0.553 0 -1 0.447 -1 1 v 12.529 c 0 0.553 0.447 1 1 1 h 13.52 c 0.553 0 1 -0.447 1 -1 V 49.735 C 80.336 49.183 79.889 48.735 79.336 48.735 z M 78.336 61.265 h -11.52 V 50.735 h 11.52 V 61.265 z" transform=" matrix(1 0 0 1 0 0) " stroke-linecap="round"/>
</g>
</svg>
