<svg fill="currentColor" xmlns="http://www.w3.org/2000/svg"
	xmlns:xlink="http://www.w3.org/1999/xlink" version="1.1"
	width="256" height="256" viewBox="0 0 256 256" xml:space="preserve">
<g transform="translate(31.576653696498056 31.576653696498028) scale(2.13 2.13)">
	<path d="M 20.06 90 c -5.358 0 -10.396 -2.087 -14.184 -5.876 C 2.087 80.336 0 75.299 0 69.94 s 2.086 -10.396 5.875 -14.184 l 20.42 -20.421 c 7.822 -7.821 20.548 -7.821 28.368 0 c 1.953 1.953 1.953 5.119 0 7.071 c -1.951 1.952 -5.119 1.952 -7.07 0 c -3.921 -3.921 -10.303 -3.922 -14.227 0 l -20.419 20.42 c -3.922 3.923 -3.922 10.304 0 14.227 c 1.9 1.9 4.426 2.946 7.113 2.946 s 5.213 -1.046 7.113 -2.946 L 37.29 66.938 c 1.954 -1.953 5.119 -1.952 7.071 0 s 1.953 5.118 0 7.07 L 34.244 84.124 C 30.455 87.913 25.418 90 20.06 90 z" transform=" matrix(1 0 0 1 0 0) " stroke-linecap="round"/>
	<path d="M 49.521 60.539 c -5.358 0 -10.396 -2.087 -14.185 -5.876 c -1.953 -1.952 -1.953 -5.118 0 -7.071 c 1.953 -1.951 5.119 -1.951 7.071 0.001 c 1.9 1.9 4.427 2.946 7.113 2.946 s 5.213 -1.046 7.112 -2.946 l 20.421 -20.42 c 1.9 -1.9 2.946 -4.426 2.946 -7.113 s -1.046 -5.213 -2.946 -7.113 c -3.922 -3.922 -10.305 -3.922 -14.227 0 L 52.71 23.063 c -1.951 1.952 -5.118 1.952 -7.071 0 c -1.953 -1.953 -1.953 -5.119 0 -7.071 L 55.757 5.875 c 7.82 -7.821 20.547 -7.821 28.367 0 C 87.913 9.664 90 14.701 90 20.06 s -2.087 10.396 -5.876 14.185 l -20.42 20.419 C 59.916 58.452 54.879 60.539 49.521 60.539 z" transform=" matrix(1 0 0 1 0 0) " stroke-linecap="round"/>
</g>
</svg>
