<svg fill="currentColor" xmlns="http://www.w3.org/2000/svg"
	xmlns:xlink="http://www.w3.org/1999/xlink" version="1.1"
	width="256" height="256" viewBox="0 0 256 256" xml:space="preserve">
<g transform="translate(31.576653696498056 31.576653696498028) scale(2.13 2.13)">
	<path d="M 77.474 17.28 L 61.526 1.332 C 60.668 0.473 59.525 0 58.311 0 H 15.742 c -2.508 0 -4.548 2.04 -4.548 4.548 v 80.904 c 0 2.508 2.04 4.548 4.548 4.548 h 58.516 c 2.508 0 4.549 -2.04 4.549 -4.548 V 20.496 C 78.807 19.281 78.333 18.138 77.474 17.28 z M 61.073 5.121 l 12.611 12.612 H 62.35 c -0.704 0 -1.276 -0.573 -1.276 -1.277 V 5.121 z M 74.258 87 H 15.742 c -0.854 0 -1.548 -0.694 -1.548 -1.548 V 4.548 C 14.194 3.694 14.888 3 15.742 3 h 42.332 v 13.456 c 0 2.358 1.918 4.277 4.276 4.277 h 13.457 v 64.719 C 75.807 86.306 75.112 87 74.258 87 z" transform=" matrix(1 0 0 1 0 0) " stroke-linecap="round"/>
	<path d="M 41.975 75.744 c -9.77 0 -17.719 -7.948 -17.719 -17.719 c 0 -9.77 7.949 -17.718 17.719 -17.718 c 0.829 0 1.5 0.671 1.5 1.5 v 14.718 h 14.719 c 0.828 0 1.5 0.672 1.5 1.5 C 59.693 67.796 51.745 75.744 41.975 75.744 z M 40.475 43.383 c -7.414 0.754 -13.219 7.033 -13.219 14.643 c 0 8.116 6.603 14.719 14.719 14.719 c 7.609 0 13.889 -5.805 14.643 -13.219 H 41.975 c -0.829 0 -1.5 -0.672 -1.5 -1.5 V 43.383 z" transform=" matrix(1 0 0 1 0 0) " stroke-linecap="round"/>
	<path d="M 64.244 53.475 H 48.025 c -0.828 0 -1.5 -0.672 -1.5 -1.5 V 35.756 c 0 -0.829 0.672 -1.5 1.5 -1.5 c 9.771 0 17.719 7.949 17.719 17.719 C 65.744 52.803 65.072 53.475 64.244 53.475 z M 49.525 50.475 h 13.143 c -0.703 -6.921 -6.222 -12.439 -13.143 -13.143 V 50.475 z" transform=" matrix(1 0 0 1 0 0) " stroke-linecap="round"/>
</g>
</svg>
