<svg fill="currentColor" xmlns="http://www.w3.org/2000/svg"
	xmlns:xlink="http://www.w3.org/1999/xlink" version="1.1" width="256" height="256"
	viewBox="0 0 256 256" xml:space="preserve">
<g transform="translate(27.094163424124503 27.094163424124474) scale(2.23 2.23)">
	<path d="M 0 6.005 v 77.99 h 90 V 6.005 H 0 z M 88 8.005 v 9.823 H 2 V 8.005 H 88 z M 2 81.995 V 19.828 h 86 v 62.167 H 2 z" transform=" matrix(1 0 0 1 0 0) " stroke-linecap="round"/>
	<path d="M 45 29.207 c -11.855 0 -21.5 9.645 -21.5 21.5 c 0 11.855 9.645 21.5 21.5 21.5 c 11.855 0 21.5 -9.645 21.5 -21.5 C 66.5 38.852 56.855 29.207 45 29.207 z M 25.551 51.707 h 7.532 c 0.071 2.884 0.439 5.599 1.059 8.057 h -6.395 C 26.465 57.334 25.699 54.603 25.551 51.707 z M 46 39.65 v -8.34 c 2.912 0.601 5.494 3.795 7.127 8.34 H 46 z M 53.762 41.65 c 0.673 2.442 1.078 5.18 1.157 8.057 H 46 V 41.65 H 53.762 z M 44 31.31 v 8.34 h -7.127 C 38.506 35.105 41.088 31.911 44 31.31 z M 44 41.65 v 8.057 h -8.918 c 0.079 -2.877 0.484 -5.615 1.157 -8.057 H 44 z M 33.082 49.707 h -7.532 c 0.148 -2.896 0.915 -5.628 2.195 -8.057 h 6.395 C 33.521 44.107 33.153 46.823 33.082 49.707 z M 35.082 51.707 H 44 v 8.057 h -7.762 C 35.566 57.322 35.161 54.584 35.082 51.707 z M 44 61.764 v 8.341 c -2.912 -0.601 -5.494 -3.796 -7.127 -8.341 H 44 z M 46 70.104 v -8.341 h 7.127 C 51.494 66.309 48.912 69.503 46 70.104 z M 46 59.764 v -8.057 h 8.919 c -0.079 2.877 -0.484 5.615 -1.157 8.057 H 46 z M 56.918 51.707 h 7.531 c -0.148 2.896 -0.915 5.627 -2.195 8.057 H 55.86 C 56.479 57.306 56.848 54.591 56.918 51.707 z M 56.918 49.707 c -0.071 -2.884 -0.439 -5.6 -1.059 -8.057 h 6.394 c 1.281 2.429 2.047 5.161 2.195 8.057 H 56.918 z M 61.044 39.65 h -5.763 c -1.005 -3.068 -2.42 -5.617 -4.122 -7.43 C 55.204 33.571 58.663 36.206 61.044 39.65 z M 38.842 32.219 c -1.703 1.813 -3.117 4.363 -4.122 7.431 h -5.764 C 31.337 36.206 34.796 33.571 38.842 32.219 z M 28.956 61.764 h 5.764 c 1.005 3.068 2.42 5.618 4.123 7.431 C 34.796 67.843 31.337 65.208 28.956 61.764 z M 51.158 69.195 c 1.703 -1.813 3.118 -4.363 4.123 -7.431 h 5.763 C 58.663 65.208 55.204 67.843 51.158 69.195 z" transform=" matrix(1 0 0 1 0 0) " stroke-linecap="round"/>
	<rect x="6.52" y="25" rx="0" ry="0" width="13.95" height="2" transform=" matrix(1 0 0 1 0 0) "/>
	<rect x="12.77" y="31" rx="0" ry="0" width="7.71" height="2" transform=" matrix(1 0 0 1 0 0) "/>
	<rect x="6.52" y="31" rx="0" ry="0" width="2.25" height="2" transform=" matrix(1 0 0 1 0 0) "/>
	<rect x="6.52" y="69" rx="0" ry="0" width="13.95" height="2" transform=" matrix(1 0 0 1 0 0) "/>
	<rect x="12.77" y="75" rx="0" ry="0" width="7.71" height="2" transform=" matrix(1 0 0 1 0 0) "/>
	<rect x="6.52" y="75" rx="0" ry="0" width="2.25" height="2" transform=" matrix(1 0 0 1 0 0) "/>
	<rect x="69.52" y="25" rx="0" ry="0" width="13.95" height="2" transform=" matrix(1 0 0 1 0 0) "/>
	<rect x="75.77" y="31" rx="0" ry="0" width="7.71" height="2" transform=" matrix(1 0 0 1 0 0) "/>
	<rect x="69.52" y="31" rx="0" ry="0" width="2.24" height="2" transform=" matrix(1 0 0 1 0 0) "/>
	<rect x="69.52" y="69" rx="0" ry="0" width="13.95" height="2" transform=" matrix(1 0 0 1 0 0) "/>
	<rect x="75.77" y="75" rx="0" ry="0" width="7.71" height="2" transform=" matrix(1 0 0 1 0 0) "/>
	<rect x="69.52" y="75" rx="0" ry="0" width="2.24" height="2" transform=" matrix(1 0 0 1 0 0) "/>
	<rect x="6.52" y="12" rx="0" ry="0" width="2.25" height="2" transform=" matrix(1 0 0 1 0 0) "/>
	<rect x="12.52" y="12" rx="0" ry="0" width="2.25" height="2" transform=" matrix(1 0 0 1 0 0) "/>
	<rect x="18.52" y="12" rx="0" ry="0" width="2.25" height="2" transform=" matrix(1 0 0 1 0 0) "/>
	<rect x="80.52" y="12" rx="0" ry="0" width="2.24" height="2" transform=" matrix(1 0 0 1 0 0) "/>
</g>
</svg>
