<svg fill="currentColor" xmlns="http://www.w3.org/2000/svg"
	xmlns:xlink="http://www.w3.org/1999/xlink" version="1.1" width="256" height="256"
	viewBox="0 0 256 256" xml:space="preserve">
<g transform="translate(27.094163424124503 27.094163424124474) scale(2.23 2.23)">
	<polygon points="11.06,13.03 19.3,13.03 15.04,22.39 2.47,22.39 " transform="  matrix(1 0 0 1 0 0) "/>
	<polygon points="65.84,13.03 70.1,22.39 56.52,22.39 55.63,13.03 " transform="  matrix(1 0 0 1 0 0) "/>
	<polygon points="51.19,13.03 52.08,22.39 37.92,22.39 37.94,22.21 38.81,13.03 " transform="  matrix(1 0 0 1 0 0) "/>
	<polygon points="33.48,22.39 19.9,22.39 24.16,13.03 34.37,13.03 " transform="  matrix(1 0 0 1 0 0) "/>
	<path d="M 32.932 26.817 c -0.939 2.947 -3.701 5.088 -6.955 5.088 c -3.253 0 -6.008 -2.142 -6.948 -5.088 H 32.932 z" transform=" matrix(1 0 0 1 0 0) " stroke-linecap="round"/>
	<path d="M 51.955 26.817 c -0.939 2.947 -3.701 5.088 -6.955 5.088 c -3.254 0 -6.016 -2.141 -6.956 -5.088 H 51.955 z" transform=" matrix(1 0 0 1 0 0) " stroke-linecap="round"/>
	<path d="M 70.972 26.817 c -0.94 2.945 -3.695 5.088 -6.948 5.088 c -3.254 0 -6.016 -2.141 -6.955 -5.088 H 70.972 z" transform=" matrix(1 0 0 1 0 0) " stroke-linecap="round"/>
	<polygon points="74.96,22.39 70.7,13.03 78.94,13.03 87.53,22.39 " transform="  matrix(1 0 0 1 0 0) "/>
	<path d="M 16.355 4.553 h 57.291 c 2.24 0 4.055 1.816 4.055 4.055 v 0 H 67.267 H 53.196 H 36.804 H 22.733 H 12.3 v 0 C 12.3 6.369 14.115 4.553 16.355 4.553 z" transform=" matrix(1 0 0 1 0 0) " stroke-linecap="round"/>
	<path d="M 0 26.817 h 13.909 c -0.939 2.947 -3.701 5.088 -6.955 5.088 S 0.939 29.763 0 26.817 z" transform=" matrix(1 0 0 1 0 0) " stroke-linecap="round"/>
	<path d="M 55.941 85.447 V 69.091 h 4.961 c 1.222 0 2.212 -0.99 2.212 -2.212 c 0 -1.222 -0.99 -2.212 -2.212 -2.212 h -4.961 V 48.312 h 17.542 v 37.135 H 55.941 z" transform=" matrix(1 0 0 1 0 0) " stroke-linecap="round"/>
	<path d="M 83.047 31.905 c -3.254 0 -6.016 -2.141 -6.955 -5.088 H 90 C 89.061 29.763 86.3 31.905 83.047 31.905 z" transform=" matrix(1 0 0 1 0 0) " stroke-linecap="round"/>
	<path d="M 16.517 75.244 h 25.314 V 48.31 H 16.517 V 75.244 z M 35.1 54.272 c 0.864 0.864 0.864 2.264 0 3.128 l -9.493 9.493 c -0.431 0.432 -0.998 0.648 -1.564 0.648 c -0.566 0 -1.132 -0.216 -1.564 -0.648 c -0.864 -0.864 -0.864 -2.264 0 -3.128 l 9.493 -9.493 C 32.835 53.408 34.237 53.408 35.1 54.272 z M 20.057 55.343 l 3.492 -3.492 c 0.864 -0.864 2.264 -0.864 3.128 0 c 0.864 0.864 0.864 2.265 -0.001 3.128 l -3.492 3.492 c -0.432 0.432 -0.998 0.648 -1.564 0.648 c -0.566 0 -1.132 -0.216 -1.564 -0.648 C 19.193 57.607 19.193 56.206 20.057 55.343 z" transform=" matrix(1 0 0 1 0 0) " stroke-linecap="round"/>
	<path d="M 83.047 36.329 c -3.915 0 -7.387 -1.931 -9.518 -4.889 c -2.131 2.955 -5.593 4.889 -9.506 4.889 c -3.916 0 -7.383 -1.937 -9.513 -4.896 c -2.13 2.959 -5.595 4.896 -9.51 4.896 c -3.916 0 -7.381 -1.937 -9.511 -4.896 c -2.13 2.959 -5.596 4.896 -9.513 4.896 c -3.913 0 -7.375 -1.934 -9.506 -4.889 c -2.13 2.958 -5.602 4.889 -9.517 4.889 c -0.203 0 -0.4 -0.02 -0.6 -0.03 v 46.03 c 0 1.722 1.396 3.119 3.119 3.119 h 42.045 V 46.099 c 0 -1.222 0.99 -2.212 2.212 -2.212 h 21.966 c 1.222 0 2.212 0.99 2.212 2.212 v 39.348 h 2.621 c 1.722 0 3.119 -1.396 3.119 -3.119 v -46.03 C 83.447 36.308 83.249 36.329 83.047 36.329 z M 46.255 77.456 c 0 1.222 -0.99 2.212 -2.212 2.212 H 14.305 c -1.222 0 -2.212 -0.99 -2.212 -2.212 V 46.099 c 0 -1.222 0.99 -2.212 2.212 -2.212 h 29.738 c 1.222 0 2.212 0.99 2.212 2.212 V 77.456 z" transform=" matrix(1 0 0 1 0 0) " stroke-linecap="round"/>
</g>
</svg>
