<svg fill="currentColor" xmlns="http://www.w3.org/2000/svg"
	xmlns:xlink="http://www.w3.org/1999/xlink" version="1.1" width="256" height="256"
	viewBox="0 0 256 256" xml:space="preserve">
<g transform="translate(22.611673151750978 22.61167315175095) scale(2.33 2.33)">
	<path d="M 51.366 78.55 H 2 c -1.104 0 -2 -0.896 -2 -2 V 27.184 c 0 -1.104 0.896 -2 2 -2 h 18.325 c 1.104 0 2 0.896 2 2 s -0.896 2 -2 2 H 4 V 74.55 h 45.366 V 29.184 H 33.041 c -1.104 0 -2 -0.896 -2 -2 s 0.896 -2 2 -2 h 18.325 c 1.104 0 2 0.896 2 2 V 76.55 C 53.366 77.654 52.471 78.55 51.366 78.55 z" transform=" matrix(1 0 0 1 0 0) " stroke-linecap="round"/>
	<path d="M 51.366 29.184 H 33.041 c -1.104 0 -2 -0.896 -2 -2 s 0.896 -2 2 -2 h 17.837 l 18.761 -9.733 H 28.958 l -18.76 9.733 h 10.127 c 1.104 0 2 0.896 2 2 s -0.896 2 -2 2 H 2 c -0.922 0 -1.725 -0.63 -1.943 -1.526 c -0.219 -0.896 0.204 -1.825 1.022 -2.25 l 26.47 -13.733 c 0.284 -0.147 0.6 -0.225 0.921 -0.225 h 49.366 c 0.922 0 1.725 0.63 1.943 1.526 c 0.218 0.896 -0.204 1.825 -1.022 2.25 l -26.47 13.733 C 52.003 29.106 51.687 29.184 51.366 29.184 z" transform=" matrix(1 0 0 1 0 0) " stroke-linecap="round"/>
	<path d="M 51.366 78.55 c -0.36 0 -0.721 -0.098 -1.039 -0.291 c -0.597 -0.362 -0.961 -1.011 -0.961 -1.709 V 27.184 c 0 -0.747 0.416 -1.431 1.079 -1.775 l 26.47 -13.733 c 0.62 -0.321 1.363 -0.295 1.96 0.066 c 0.597 0.363 0.961 1.011 0.961 1.709 v 34.227 c 0 1.104 -0.896 2 -2 2 s -2 -0.896 -2 -2 V 16.741 l -22.47 11.658 v 44.86 l 7.472 -3.877 c 0.982 -0.507 2.188 -0.126 2.696 0.854 s 0.126 2.188 -0.854 2.696 l -10.393 5.393 C 51.998 78.476 51.682 78.55 51.366 78.55 z" transform=" matrix(1 0 0 1 0 0) " stroke-linecap="round"/>
	<path d="M 33.041 48.002 c -0.376 0 -0.751 -0.105 -1.079 -0.315 l -5.279 -3.382 l -5.279 3.382 c -0.615 0.394 -1.397 0.422 -2.039 0.07 c -0.641 -0.352 -1.04 -1.023 -1.04 -1.755 V 27.184 c 0 -0.747 0.416 -1.431 1.079 -1.775 l 26.47 -13.733 c 0.284 -0.147 0.601 -0.225 0.921 -0.225 h 12.716 c 0.922 0 1.725 0.63 1.943 1.526 c 0.218 0.896 -0.204 1.825 -1.022 2.25 L 35.041 28.399 v 17.603 c 0 0.731 -0.399 1.403 -1.04 1.755 C 33.701 47.921 33.371 48.002 33.041 48.002 z M 26.683 39.93 c 0.375 0 0.75 0.105 1.079 0.316 l 3.279 2.1 V 27.184 c 0 -0.747 0.416 -1.431 1.079 -1.775 l 19.193 -9.958 h -4.03 L 22.325 28.399 v 13.947 l 3.279 -2.1 C 25.933 40.035 26.308 39.93 26.683 39.93 z" transform=" matrix(1 0 0 1 0 0) " stroke-linecap="round"/>
	<path d="M 70.662 68.794 L 70.662 68.794 c -0.53 0 -1.039 -0.211 -1.414 -0.586 l -5.054 -5.055 c -0.781 -0.781 -0.781 -2.048 0 -2.828 c 0.781 -0.781 2.047 -0.781 2.828 0 l 3.64 3.641 l 8.693 -8.694 c 0.781 -0.781 2.048 -0.78 2.829 -0.001 c 0.781 0.781 0.781 2.048 0.001 2.829 L 72.076 68.208 C 71.701 68.583 71.192 68.794 70.662 68.794 z" transform=" matrix(1 0 0 1 0 0) " stroke-linecap="round"/>
	<path d="M 73.189 78.55 c -9.27 0 -16.811 -7.541 -16.811 -16.811 c 0 -9.269 7.541 -16.81 16.811 -16.81 S 90 52.471 90 61.739 C 90 71.009 82.459 78.55 73.189 78.55 z M 73.189 48.93 c -7.063 0 -12.811 5.746 -12.811 12.81 S 66.126 74.55 73.189 74.55 S 86 68.803 86 61.739 S 80.253 48.93 73.189 48.93 z" transform=" matrix(1 0 0 1 0 0) " stroke-linecap="round"/>
</g>
</svg>
